<?xml version="1.0" encoding="UTF-8"?>
<svg id="Layer_1" xmlns="http://www.w3.org/2000/svg" version="1.1" viewBox="0 0 512 512">
  <!-- Generator: Adobe Illustrator 29.5.0, SVG Export Plug-In . SVG Version: 2.1.0 Build 137)  -->
  <defs>
    <style>
      .st0 {
        fill: #2c3a12;
        stroke-width: 7.53px;
      }

      .st0, .st1, .st2 {
        stroke-miterlimit: 10;
      }

      .st0, .st2 {
        stroke: #2c3a12;
      }

      .st1 {
        fill: #a5c98f;
        stroke: #c7b299;
        stroke-width: .62px;
      }

      .st2 {
        fill: #a2cd71;
        stroke-width: 2.33px;
      }
    </style>
  </defs>
  <g id="bg">
    <rect class="st1" x="-19.58" y="-19.58" width="553.09" height="553.09"/>
  </g>
  <g id="Layer_5">
    <path class="st0" d="M348.1,349.17c-28.41,22.28-80.21,22.28-95.12,22.28-77.72,0-113.93-59.76-113.93-111.38s37.27-119.51,123.86-119.51c37.97,0,63.17,12.02,70.63,12.02,3.19,0,6.03-.71,8.16-2.48h4.97v57.28h-7.1c-9.58-44.2-39.75-57.99-72.76-57.99-62.46,0-94.4,51.62-94.4,108.55,0,72.48,52.31,84.03,63.17,87.29,17.19,5.16,54.72,10.87,83.05,3.93v-44.55c0-20.15-7.1-26.87-28.39-26.87h-13.13v-6.37h95.82v6.37c-17.75,1.06-24.84,7.07-24.84,22.28v49.15Z"/>
  </g>
  <g id="Layer_7">
    <path class="st2" d="M192.45,276.67c7.75,8.31,29.43,41.46,54.97,55.86,2.03-5.39,2.73-24.09.49-31.62-3.28-11.03-5.29-20.83-26.07-31.38-15.45-7.85-24.82-13.34-31.27-18.96-8.11-7.07-12.66-24.42-12.97-21.94-2.9,22.94-18.14,58.58,5.92,93.83,12.17,17.83,44.92,27.98,58.79,16.78-16-5.53-43.24-51.63-49.86-62.58h0Z"/>
  </g>
</svg>