<?xml version="1.0" encoding="UTF-8"?>
<svg id="Layer_7" xmlns="http://www.w3.org/2000/svg" version="1.1" viewBox="0 0 2486.72 512">
  <!-- Generator: Adobe Illustrator 29.5.0, SVG Export Plug-In . SVG Version: 2.1.0 Build 137)  -->
  <defs>
    <style>
      .st0 {
        isolation: isolate;
      }

      .st1 {
        stroke: #efefef;
        stroke-width: 9.63px;
      }

      .st1, .st2 {
        fill: #efefef;
      }

      .st1, .st3, .st4 {
        stroke-miterlimit: 10;
      }

      .st3 {
        stroke-width: 2.34px;
      }

      .st3, .st4 {
        fill: #a2cd71;
        stroke: #2c3a12;
      }

      .st4 {
        stroke-width: 2.97px;
      }
    </style>
  </defs>
  <path class="st1" d="M321.91,375.18c-36.34,28.5-102.6,28.5-121.67,28.5-99.42,0-145.73-76.44-145.73-142.48S102.18,108.32,212.95,108.32c48.58,0,80.81,15.38,90.34,15.38,4.09,0,7.72-.9,10.44-3.17h6.36v73.27h-9.08c-12.26-56.54-50.85-74.18-93.07-74.18-79.9,0-120.76,66.04-120.76,138.86,0,92.72,66.92,107.49,80.81,111.66,21.99,6.6,70,13.9,106.23,5.03v-56.99c0-25.78-9.08-34.37-36.32-34.37h-16.8v-8.14h122.58v8.14c-22.7,1.36-31.78,9.04-31.78,28.49v62.87h.01Z"/>
  <g class="st0">
    <g class="st0">
      <path class="st2" d="M393.3,289.47c-.82-2.47-1.24-3.71-1.24-5.77,0-14.43,34.22-47.83,61.02-47.83,12.37,0,31.75,5.77,43.29,21.85,6.19,8.66,6.19,14.02,6.19,35.46v55.25c0,32.99,0,40.41,10.72,40.41,4.54,0,9.9-.41,20.2-9.07l2.06,6.19c-22.27,18.14-33.81,22.68-40.82,22.68-16.91,0-18.55-18.55-18.97-25.15-28.45,23.5-36.7,25.15-47.83,25.15-23.91,0-38.35-13.61-38.35-33.81,0-25.15,22.27-33.81,48.65-40.41,8.66-2.06,22.27-7.01,36.7-15.67v-32.57c0-11.54,0-18.14-7.01-26.39-5.36-6.6-14.02-11.96-23.09-11.96-13.61,0-25.56,11.54-25.56,20.2,0,2.47.41,4.12,2.06,7.83l-28.04,13.61h.02ZM474.94,326.99c-7.83,4.54-14.43,7.42-24.33,11.54-25.15,10.31-34.63,14.43-34.63,31.34,0,14.84,11.96,24.33,24.33,24.33,6.6,0,11.54-2.06,34.63-18.14v-49.07Z"/>
    </g>
    <g class="st0">
      <path class="st2" d="M604,373.58c0,16.91,6.18,22.27,26.8,22.27h15.67v7.83h-97.72v-7.83c21.03-.41,27.63-9.07,27.63-30.92v-95.25l-27.63-9.9v-7.01l47-16.49h8.25v43.71h.82c20.62-33.81,25.56-41.64,39.17-41.64,4.95,0,6.18.41,14.02,3.71,4.12,1.65,11.55,3.3,21.44,6.19l-9.9,24.74c-6.19-.83-14.02-2.89-21.85-6.6-4.54-2.06-9.48-4.12-14.43-4.12-7.42,0-11.96,4.95-16.08,10.72-5.36,7.42-9.9,14.43-13.19,20.62v79.99-.02Z"/>
    </g>
    <g class="st0">
      <path class="st2" d="M814.69,163.71c0-7.83-2.89-9.9-16.08-11.54l-13.61-1.65v-7.01l57.31-16.91v242.03c0,14.02,8.66,16.91,20.2,13.61l9.9-2.89v8.66l-52.78,20.62h-4.95v-29.28c-26.8,19.38-48.24,29.28-63.91,29.28-36.7,0-65.97-35.46-65.97-79.58,0-51.54,39.17-93.18,89.47-93.18,12.37,0,29.27,3.3,40.41,7.83v-79.99h.01ZM814.69,277.92c-14.84-21.85-29.69-30.92-49.07-30.92-32.16,0-53.19,29.27-53.19,68.03,0,41.23,23.92,75.87,53.6,75.87,12.78,0,30.51-7.83,48.65-20.62v-92.36h.01Z"/>
      <path class="st2" d="M920.25,298.95c-.82,6.19-1.65,11.96-1.65,17.32,0,42.88,30.1,71.74,62.67,71.74,20.62,0,36.7-8.25,52.37-26.8l4.54,4.95c-17.32,21.85-43.29,42.47-73.39,42.47-40.41,0-71.74-36.7-71.74-84.53,0-43.71,29.27-88.24,79.58-88.24,55.66,0,54.43,39.99,68.03,53.6v9.48h-120.41ZM1006.01,288.23c-4.54-26.8-21.03-44.53-40.82-44.53-13.61,0-34.22,6.18-43.71,44.53h84.53Z"/>
      <path class="st2" d="M1119.8,367.81c0,22.68,5.36,28.04,27.63,28.04v7.83h-82.88v-7.83c18.14,0,27.62-9.9,27.62-25.98v-86.59c0-15.26-1.65-18.14-12.37-20.2l-14.02-2.89v-6.6l47.42-17.32h6.6v32.16c27.63-17.32,50.72-32.57,70.92-32.57,28.04,0,44.12,20.62,44.12,61.85,0,54.84-2.89,65.56-3.3,81.64-.41,11.13,6.19,16.49,23.09,16.49h9.07v7.83h-88.65v-7.83c11.96-.41,18.97-3.3,23.5-7.83,7.83-7.83,8.66-37.93,8.66-92.77,0-32.99-16.08-43.29-32.57-43.29-13.19,0-33.4,11.54-54.84,26.39v89.47h0Z"/>
    </g>
  </g>
  <path class="st1" d="M1481.9,358.24c0,28.2,11.28,35.25,37.6,35.25h10.81v8.93h-133.01v-8.93h7.99c27.73,0,37.6-7.52,37.6-39.01v-197.87c0-29.14-7.99-37.6-35.25-37.6h-10.34v-8.93c11.28,0,39.95-1.88,59.22-2.82s28.67-1.41,59.22-1.41c86.95,0,125.96,35.72,125.96,83.66,0,35.25-23.97,64.86-62.51,76.14,17.39,13.63,31.49,26.79,53.58,48.88l37.13,37.13c27.73,27.73,56.4,45.12,92.59,47.47v8.46c-82.25,3.76-103.4-14.1-145.23-55.93l-31.02-31.02c-20.68-20.68-37.13-34.31-48.41-41.83-11.75.47-19.27.94-31.96.94-10.34,0-16.45-.47-23.97-.94v79.43h0ZM1481.9,269.88c11.28,1.41,18.33.94,29.14.94,52.17,0,86.48-22.09,86.48-78.49,0-43.71-19.74-77.55-92.12-77.55-8.93,0-15.04,0-23.5.94v154.16Z"/>
  <g class="st0">
    <g class="st0">
      <path class="st2" d="M1809.5,298.95c-.83,6.19-1.65,11.96-1.65,17.32,0,42.88,30.1,71.74,62.67,71.74,20.62,0,36.7-8.25,52.37-26.8l4.54,4.95c-17.32,21.85-43.29,42.47-73.39,42.47-40.41,0-71.74-36.7-71.74-84.53,0-43.71,29.28-88.24,79.58-88.24,55.66,0,54.43,39.99,68.03,53.6v9.48h-120.41ZM1895.26,288.23c-4.54-26.8-21.03-44.53-40.82-44.53-13.61,0-34.22,6.18-43.71,44.53h84.53,0Z"/>
      <path class="st2" d="M1961.64,289.47c-.82-2.47-1.24-3.71-1.24-5.77,0-14.43,34.22-47.83,61.02-47.83,12.37,0,31.75,5.77,43.29,21.85,6.18,8.66,6.18,14.02,6.18,35.46v55.25c0,32.99,0,40.41,10.72,40.41,4.54,0,9.9-.41,20.2-9.07l2.06,6.19c-22.27,18.14-33.81,22.68-40.82,22.68-16.91,0-18.55-18.55-18.97-25.15-28.45,23.5-36.7,25.15-47.83,25.15-23.91,0-38.35-13.61-38.35-33.81,0-25.15,22.27-33.81,48.65-40.41,8.66-2.06,22.27-7.01,36.7-15.67v-32.57c0-11.54,0-18.14-7.01-26.39-5.36-6.6-14.02-11.96-23.09-11.96-13.61,0-25.56,11.54-25.56,20.2,0,2.47.41,4.12,2.06,7.83l-28.04,13.61h.03ZM2043.28,326.99c-7.83,4.54-14.43,7.42-24.33,11.54-25.15,10.31-34.64,14.43-34.64,31.34,0,14.84,11.96,24.33,24.33,24.33,6.6,0,11.54-2.06,34.64-18.14v-49.07Z"/>
      <path class="st2" d="M2253.97,163.71c0-7.83-2.89-9.9-16.08-11.54l-13.61-1.65v-7.01l57.31-16.91v242.03c0,14.02,8.66,16.91,20.2,13.61l9.9-2.89v8.66l-52.78,20.62h-4.95v-29.28c-26.8,19.38-48.24,29.28-63.91,29.28-36.7,0-65.97-35.46-65.97-79.58,0-51.54,39.17-93.18,89.47-93.18,12.37,0,29.27,3.3,40.41,7.83v-79.99h.01ZM2253.97,277.92c-14.84-21.85-29.69-30.92-49.07-30.92-32.16,0-53.19,29.27-53.19,68.03,0,41.23,23.92,75.87,53.6,75.87,12.78,0,30.51-7.83,48.65-20.62v-92.36h.01Z"/>
      <path class="st2" d="M2332.31,362.04c4.95,24.74,20.62,38.76,39.17,38.76,16.49,0,29.28-12.37,29.28-27.21,0-8.66-2.06-14.02-13.19-25.15-29.28-29.28-61.85-32.16-61.85-66.38,0-27.21,21.44-46.18,52.78-46.18,11.13,0,22.68,2.47,32.99,6.6l.82,37.52h-7.01c-2.89-21.03-16.49-34.22-32.99-34.22-13.61,0-25.15,9.48-25.15,23.09,0,36.29,76.69,42.47,76.69,92.77,0,26.8-22.27,47-51.13,47-7.83,0-13.61-1.24-18.14-2.89-4.54-1.24-7.83-2.47-11.13-2.47-2.47,0-4.95,1.65-7.01,4.95h-6.19l-4.54-46.18h6.6,0Z"/>
    </g>
  </g>
  <path class="st4" d="M122.8,282.45c9.91,10.63,37.65,53.04,70.32,71.46,2.6-6.9,3.49-30.82.63-40.44-4.19-14.11-6.76-26.65-33.35-40.15-19.77-10.04-31.75-17.06-40.01-24.26-10.38-9.04-16.19-31.24-16.59-28.06-3.72,29.35-23.21,74.94,7.57,120.03,15.57,22.81,57.46,35.79,75.21,21.47-20.46-7.07-55.31-66.05-63.78-80.05Z"/>
  <path class="st3" d="M1529.99,249.32c8.49-7.64,42.19-28.85,57.12-54.27-5.38-2.14-24.17-3.17-31.77-1.05-11.15,3.1-21.03,4.95-32,25.65-8.16,15.39-13.85,24.71-19.61,31.1-7.25,8.03-24.77,12.29-22.28,12.65,23.01,3.32,58.56,19.27,94.42-4.29,18.14-11.92,28.92-44.66,17.91-58.8-5.84,15.98-52.66,42.54-63.78,49.01h-.01Z"/>
</svg>